<svg width="526mm" height="303mm" viewBox="0 0 526 303" xmlns="http://www.w3.org/2000/svg" version="1.1" preserveAspectRatio="xMidYMid meet"><g id="svgGroup" stroke-linecap="round" fill-rule="evenodd" font-size="9pt" stroke="#000" stroke-width="0.25mm" fill="none" style="stroke:#000;stroke-width:0.25mm;fill:none"><path d="M 0 153 L 0 186.414 L 3 186.414 L 3 214.138 L 0 214.138 L 0 241.862 L 3 241.862 L 3 269.586 L 0 269.586 L 0 297.31 L 0 303 L 40.69 303 L 40.69 300 L 68.414 300 L 68.414 303 L 96.138 303 L 96.138 300 L 123.862 300 L 123.862 303 L 151.586 303 L 151.586 300 L 179.31 300 L 179.31 303 L 207.034 303 L 220 303 L 220 269.586 L 217 269.586 L 217 241.862 L 220 241.862 L 220 214.138 L 217 214.138 L 217 186.414 L 220 186.414 L 220 158.69 L 220 153 L 179.31 153 L 179.31 156 L 151.586 156 L 151.586 153 L 123.862 153 L 123.862 156 L 96.138 156 L 96.138 153 L 68.414 153 L 68.414 156 L 40.69 156 L 40.69 153 L 12.966 153 L 0 153 Z" id="front_outsideCutPath" stroke="#FF0000" stroke-width="0.1" style="stroke:#FF0000;stroke-width:0.1" vector-effect="non-scaling-stroke"/><path d="M 131.863 239.33 L 129.431 239.33 L 129.431 228.945 A 6.874 6.874 0 0 0 129.352 227.867 Q 129.262 227.299 129.068 226.847 A 2.893 2.893 0 0 0 128.538 226.015 A 2.741 2.741 0 0 0 127.413 225.297 Q 126.707 225.048 125.74 225.048 Q 124.08 225.048 123.005 225.639 A 3.428 3.428 0 0 0 122.048 226.41 A 3.975 3.975 0 0 0 121.357 227.618 Q 120.941 228.727 120.885 230.379 A 15.578 15.578 0 0 0 120.876 230.907 L 120.876 239.33 L 118.445 239.33 L 118.445 223.276 L 120.422 223.276 L 120.818 225.473 L 120.935 225.473 A 4.924 4.924 0 0 1 122.864 223.718 A 5.921 5.921 0 0 1 123.03 223.634 Q 124.377 222.983 126.033 222.983 A 9.601 9.601 0 0 1 127.667 223.112 Q 128.55 223.265 129.248 223.598 A 4.37 4.37 0 0 1 130.398 224.382 Q 131.512 225.446 131.779 227.481 A 10.612 10.612 0 0 1 131.863 228.857 L 131.863 239.33 Z M 85.149 223.276 L 85.149 225.165 L 81.062 225.165 L 81.062 239.33 L 78.63 239.33 L 78.63 225.165 L 75.759 225.165 L 75.759 224.067 L 78.63 223.188 L 78.63 222.294 A 9.855 9.855 0 0 1 78.86 220.061 Q 79.572 217.015 82.484 216.487 A 7.391 7.391 0 0 1 83.801 216.376 A 7.83 7.83 0 0 1 84.909 216.461 Q 85.448 216.538 86.048 216.686 A 15.741 15.741 0 0 1 86.79 216.889 L 86.16 218.837 Q 85.161 218.515 84.369 218.421 A 5.23 5.23 0 0 0 83.757 218.383 A 3.279 3.279 0 0 0 82.967 218.472 A 2.106 2.106 0 0 0 81.721 219.299 A 2.814 2.814 0 0 0 81.349 220.049 Q 81.102 220.781 81.068 221.87 A 11.48 11.48 0 0 0 81.062 222.236 L 81.062 223.276 L 85.149 223.276 Z M 144.241 237.323 L 144.241 239.184 A 2.392 2.392 0 0 1 143.957 239.296 Q 143.605 239.413 143.076 239.499 Q 142.358 239.615 141.774 239.623 A 6.232 6.232 0 0 1 141.692 239.623 A 6.351 6.351 0 0 1 139.82 239.371 Q 137.763 238.736 137.225 236.502 A 7.643 7.643 0 0 1 137.034 234.716 L 137.034 225.165 L 134.734 225.165 L 134.734 223.993 L 137.034 222.983 L 138.059 219.555 L 139.465 219.555 L 139.465 223.276 L 144.124 223.276 L 144.124 225.165 L 139.465 225.165 L 139.465 234.613 Q 139.465 235.632 139.805 236.319 A 2.359 2.359 0 0 0 140.154 236.84 A 2.259 2.259 0 0 0 141.542 237.579 A 3.25 3.25 0 0 0 142.043 237.616 A 7.986 7.986 0 0 0 143.213 237.533 A 7.359 7.359 0 0 0 143.289 237.521 A 13.154 13.154 0 0 0 143.64 237.461 Q 143.999 237.394 144.241 237.323 Z M 97.322 223.158 L 96.985 225.414 A 10.717 10.717 0 0 0 96.214 225.272 Q 95.679 225.195 95.227 225.195 A 4.213 4.213 0 0 0 92.114 226.539 A 5.764 5.764 0 0 0 91.895 226.777 A 5.553 5.553 0 0 0 90.555 229.894 A 7.381 7.381 0 0 0 90.51 230.717 L 90.51 239.33 L 88.079 239.33 L 88.079 223.276 L 90.085 223.276 L 90.364 226.249 L 90.481 226.249 Q 91.375 224.682 92.634 223.832 A 4.847 4.847 0 0 1 95.403 222.983 A 11.163 11.163 0 0 1 96.402 223.025 A 8.148 8.148 0 0 1 97.322 223.158 Z M 113.959 233.732 A 12.56 12.56 0 0 0 114.182 231.288 A 14.272 14.272 0 0 0 114.177 230.902 Q 114.141 229.565 113.851 228.431 A 7.572 7.572 0 0 0 112.197 225.224 A 6.366 6.366 0 0 0 109.242 223.318 A 8.171 8.171 0 0 0 106.843 222.983 A 9.444 9.444 0 0 0 105.147 223.128 A 6.432 6.432 0 0 0 101.394 225.173 Q 99.431 227.362 99.431 231.288 A 12.165 12.165 0 0 0 99.584 233.259 A 8.995 8.995 0 0 0 100.339 235.712 A 7.992 7.992 0 0 0 100.516 236.059 A 6.583 6.583 0 0 0 102.917 238.612 A 6.771 6.771 0 0 0 104.472 239.304 A 7.809 7.809 0 0 0 106.741 239.623 A 9.442 9.442 0 0 0 108.39 239.485 A 6.483 6.483 0 0 0 112.205 237.419 A 6.783 6.783 0 0 0 113.012 236.309 Q 113.671 235.182 113.959 233.732 Z M 101.951 231.288 A 12.314 12.314 0 0 0 102.068 233.047 Q 102.197 233.94 102.469 234.664 A 5.101 5.101 0 0 0 103.181 235.976 A 3.985 3.985 0 0 0 105.777 237.504 A 6.039 6.039 0 0 0 106.799 237.587 A 5.648 5.648 0 0 0 108.289 237.402 A 3.931 3.931 0 0 0 110.425 235.983 A 5.22 5.22 0 0 0 111.238 234.4 Q 111.477 233.668 111.581 232.775 A 12.809 12.809 0 0 0 111.663 231.288 A 12.133 12.133 0 0 0 111.548 229.559 Q 111.285 227.742 110.425 226.637 A 4 4 0 0 0 107.938 225.154 A 6.133 6.133 0 0 0 106.77 225.048 A 5.787 5.787 0 0 0 105.329 225.217 A 3.873 3.873 0 0 0 103.167 226.615 A 5.028 5.028 0 0 0 102.385 228.126 Q 101.951 229.432 101.951 231.288 Z" id="front_labelLayer" stroke="#777777" fill="#777777" style="stroke:#777777;fill:#777777" vector-effect="non-scaling-stroke"/><path d="M 226 153 L 226 186.414 L 223 186.414 L 223 214.138 L 226 214.138 L 226 241.862 L 223 241.862 L 223 269.586 L 226 269.586 L 226 297.31 L 226 303 L 249.138 303 L 249.138 300 L 276.862 300 L 276.862 303 L 300 303 L 300 269.586 L 303 269.586 L 303 241.862 L 300 241.862 L 300 214.138 L 303 214.138 L 303 186.414 L 300 186.414 L 300 158.69 L 300 153 L 276.862 153 L 276.862 156 L 249.138 156 L 249.138 153 L 226 153 Z" id="left_outsideCutPath" stroke="#FF0000" stroke-width="0.1" style="stroke:#FF0000;stroke-width:0.1" vector-effect="non-scaling-stroke"/><path d="M 268.691 225.48 L 268.691 226.488 L 266.512 226.488 L 266.512 234.043 L 265.215 234.043 L 265.215 226.488 L 263.684 226.488 L 263.684 225.902 L 265.215 225.433 L 265.215 224.957 A 5.256 5.256 0 0 1 265.338 223.766 Q 265.717 222.141 267.27 221.86 A 3.942 3.942 0 0 1 267.973 221.801 A 4.176 4.176 0 0 1 268.564 221.846 Q 269.024 221.912 269.566 222.074 L 269.23 223.113 Q 268.698 222.941 268.275 222.891 A 2.789 2.789 0 0 0 267.949 222.871 A 1.749 1.749 0 0 0 267.528 222.919 A 1.123 1.123 0 0 0 266.863 223.359 A 1.501 1.501 0 0 0 266.665 223.759 Q 266.512 224.214 266.512 224.926 L 266.512 225.48 L 268.691 225.48 Z M 262.621 229.176 L 262.621 229.996 L 256.723 229.996 A 5.205 5.205 0 0 0 256.814 230.867 Q 256.907 231.342 257.095 231.717 A 2.435 2.435 0 0 0 257.484 232.285 A 2.357 2.357 0 0 0 258.722 232.982 A 3.571 3.571 0 0 0 259.52 233.066 A 6.85 6.85 0 0 0 262.085 232.558 A 7.848 7.848 0 0 0 262.254 232.488 L 262.254 233.644 A 7.786 7.786 0 0 1 261.544 233.912 A 5.954 5.954 0 0 1 260.953 234.07 Q 260.34 234.199 259.473 234.199 A 5.04 5.04 0 0 1 258.212 234.05 A 3.568 3.568 0 0 1 256.477 233.043 Q 255.442 231.953 255.383 230.066 A 7.408 7.408 0 0 1 255.379 229.832 Q 255.379 227.762 256.398 226.543 A 3.323 3.323 0 0 1 258.821 225.335 A 4.585 4.585 0 0 1 259.137 225.324 A 3.951 3.951 0 0 1 260.249 225.473 A 3.006 3.006 0 0 1 261.684 226.383 Q 262.621 227.441 262.621 229.176 Z M 274.191 232.972 L 274.191 233.965 A 1.276 1.276 0 0 1 274.04 234.025 Q 273.852 234.087 273.57 234.133 A 5.621 5.621 0 0 1 273.204 234.18 Q 273.031 234.197 272.876 234.199 A 3.325 3.325 0 0 1 272.832 234.199 A 3.387 3.387 0 0 1 271.834 234.065 Q 270.737 233.726 270.449 232.534 A 4.076 4.076 0 0 1 270.348 231.582 L 270.348 226.488 L 269.121 226.488 L 269.121 225.863 L 270.348 225.324 L 270.895 223.496 L 271.645 223.496 L 271.645 225.48 L 274.129 225.48 L 274.129 226.488 L 271.645 226.488 L 271.645 231.527 A 2.611 2.611 0 0 0 271.682 231.986 Q 271.762 232.433 272.012 232.715 Q 272.379 233.129 273.02 233.129 A 4.259 4.259 0 0 0 273.643 233.084 A 3.925 3.925 0 0 0 273.684 233.078 Q 273.989 233.029 274.174 232.977 A 1.951 1.951 0 0 0 274.191 232.972 Z M 253.105 221.887 L 253.105 234.043 L 251.809 234.043 L 251.809 221.887 L 253.105 221.887 Z M 256.754 228.941 L 261.23 228.941 Q 261.23 227.715 260.684 227.062 A 1.777 1.777 0 0 0 259.614 226.453 A 2.665 2.665 0 0 0 259.121 226.41 A 2.556 2.556 0 0 0 258.383 226.511 A 1.975 1.975 0 0 0 257.477 227.082 Q 256.863 227.754 256.754 228.941 Z" id="left_labelLayer" stroke="#777777" fill="#777777" style="stroke:#777777;fill:#777777" vector-effect="non-scaling-stroke"/><path d="M 309 226 L 309 249.138 L 306 249.138 L 306 276.862 L 309 276.862 L 309 300 L 346.69 300 L 346.69 303 L 374.414 303 L 374.414 300 L 402.138 300 L 402.138 303 L 429.862 303 L 429.862 300 L 457.586 300 L 457.586 303 L 485.31 303 L 485.31 300 L 513.034 300 L 523 300 L 523 276.862 L 526 276.862 L 526 249.138 L 523 249.138 L 523 226 L 485.31 226 L 485.31 223 L 457.586 223 L 457.586 226 L 429.862 226 L 429.862 223 L 402.138 223 L 402.138 226 L 374.414 226 L 374.414 223 L 346.69 223 L 346.69 226 L 318.966 226 L 309 226 Z" id="top_outsideCutPath" stroke="#FF0000" stroke-width="0.1" style="stroke:#FF0000;stroke-width:0.1" vector-effect="non-scaling-stroke"/><path d="M 421.75 265.25 L 421.656 265.25 A 12.273 12.273 0 0 1 421.737 266.157 A 10.284 10.284 0 0 1 421.75 266.672 L 421.75 270.195 L 420.453 270.195 L 420.453 257.789 L 421.508 257.789 L 421.687 258.961 L 421.75 258.961 A 3.491 3.491 0 0 1 422.255 258.388 A 2.699 2.699 0 0 1 422.914 257.945 A 3.248 3.248 0 0 1 423.845 257.673 A 4.204 4.204 0 0 1 424.437 257.633 A 3.975 3.975 0 0 1 425.56 257.783 A 2.938 2.938 0 0 1 427.066 258.797 A 3.894 3.894 0 0 1 427.731 260.094 Q 427.902 260.653 427.961 261.326 A 8.445 8.445 0 0 1 427.992 262.062 Q 427.992 263.551 427.523 264.571 A 3.645 3.645 0 0 1 427.051 265.34 A 3.07 3.07 0 0 1 424.869 266.487 A 4.399 4.399 0 0 1 424.437 266.508 A 3.934 3.934 0 0 1 423.449 266.387 A 3.423 3.423 0 0 1 422.91 266.199 A 2.872 2.872 0 0 1 421.75 265.25 Z M 409.078 265.281 L 409.078 266.273 A 1.276 1.276 0 0 1 408.927 266.333 Q 408.739 266.396 408.457 266.441 A 5.621 5.621 0 0 1 408.09 266.489 Q 407.918 266.505 407.763 266.508 A 3.325 3.325 0 0 1 407.719 266.508 A 3.387 3.387 0 0 1 406.72 266.373 Q 405.623 266.035 405.336 264.843 A 4.076 4.076 0 0 1 405.234 263.891 L 405.234 258.797 L 404.008 258.797 L 404.008 258.172 L 405.234 257.633 L 405.781 255.805 L 406.531 255.805 L 406.531 257.789 L 409.016 257.789 L 409.016 258.797 L 406.531 258.797 L 406.531 263.836 A 2.611 2.611 0 0 0 406.569 264.295 Q 406.649 264.742 406.898 265.023 Q 407.266 265.438 407.906 265.438 A 4.259 4.259 0 0 0 408.53 265.393 A 3.925 3.925 0 0 0 408.57 265.387 Q 408.876 265.338 409.061 265.286 A 1.951 1.951 0 0 0 409.078 265.281 Z M 418.061 263.366 A 6.699 6.699 0 0 0 418.18 262.062 Q 418.18 261.23 418.003 260.538 A 4.038 4.038 0 0 0 417.121 258.828 A 3.395 3.395 0 0 0 415.545 257.812 A 4.358 4.358 0 0 0 414.266 257.633 A 5.037 5.037 0 0 0 413.361 257.71 A 3.43 3.43 0 0 0 411.359 258.801 Q 410.312 259.969 410.312 262.063 A 6.488 6.488 0 0 0 410.394 263.113 A 4.798 4.798 0 0 0 410.797 264.422 A 4.263 4.263 0 0 0 410.891 264.607 A 3.511 3.511 0 0 0 412.172 265.969 Q 413.062 266.508 414.211 266.508 A 5.036 5.036 0 0 0 415.09 266.434 A 3.457 3.457 0 0 0 417.125 265.332 A 3.618 3.618 0 0 0 417.556 264.74 Q 417.907 264.139 418.061 263.366 Z M 411.656 262.063 A 6.567 6.567 0 0 0 411.719 263.001 Q 411.859 263.968 412.312 264.563 Q 412.969 265.422 414.242 265.422 A 3.012 3.012 0 0 0 415.037 265.323 A 2.096 2.096 0 0 0 416.176 264.566 Q 416.836 263.711 416.836 262.063 A 6.471 6.471 0 0 0 416.775 261.14 Q 416.707 260.671 416.564 260.291 A 2.67 2.67 0 0 0 416.176 259.582 A 2.133 2.133 0 0 0 414.849 258.791 A 3.271 3.271 0 0 0 414.226 258.734 A 3.086 3.086 0 0 0 413.458 258.824 A 2.066 2.066 0 0 0 412.305 259.57 A 2.681 2.681 0 0 0 411.888 260.376 Q 411.765 260.746 411.707 261.199 A 6.853 6.853 0 0 0 411.656 262.062 Z M 421.75 261.773 L 421.75 262.063 Q 421.75 263.595 422.184 264.387 A 1.956 1.956 0 0 0 422.351 264.645 Q 422.953 265.422 424.281 265.422 Q 425.391 265.422 426.019 264.523 A 3.136 3.136 0 0 0 426.449 263.607 Q 426.648 262.935 426.648 262.047 A 6.544 6.544 0 0 0 426.587 261.119 Q 426.519 260.648 426.378 260.266 A 2.749 2.749 0 0 0 426.019 259.59 A 2.017 2.017 0 0 0 424.544 258.749 A 2.79 2.79 0 0 0 424.25 258.734 A 3.737 3.737 0 0 0 423.552 258.795 Q 422.768 258.944 422.351 259.461 A 2.222 2.222 0 0 0 422.004 260.094 Q 421.76 260.757 421.75 261.773 Z" id="top_labelLayer" stroke="#777777" fill="#777777" style="stroke:#777777;fill:#777777" vector-effect="non-scaling-stroke"/><path d="M 0 0 L 0 33.414 L 3 33.414 L 3 61.138 L 0 61.138 L 0 88.862 L 3 88.862 L 3 116.586 L 0 116.586 L 0 144.31 L 0 150 L 40.69 150 L 40.69 147 L 68.414 147 L 68.414 150 L 96.138 150 L 96.138 147 L 123.862 147 L 123.862 150 L 151.586 150 L 151.586 147 L 179.31 147 L 179.31 150 L 207.034 150 L 220 150 L 220 116.586 L 217 116.586 L 217 88.862 L 220 88.862 L 220 61.138 L 217 61.138 L 217 33.414 L 220 33.414 L 220 5.69 L 220 0 L 179.31 0 L 179.31 3 L 151.586 3 L 151.586 0 L 123.862 0 L 123.862 3 L 96.138 3 L 96.138 0 L 68.414 0 L 68.414 3 L 40.69 3 L 40.69 0 L 12.966 0 L 0 0 Z" id="back_outsideCutPath" stroke="#FF0000" stroke-width="0.1" style="stroke:#FF0000;stroke-width:0.1" vector-effect="non-scaling-stroke"/><path d="M 130.537 78.032 L 130.654 78.032 Q 131.284 77.139 132.573 75.688 L 137.759 70.195 L 140.645 70.195 L 134.141 77.036 L 141.099 86.25 L 138.154 86.25 L 132.485 78.662 L 130.654 80.244 L 130.654 86.25 L 128.252 86.25 L 128.252 63.457 L 130.654 63.457 L 130.654 75.542 A 16.204 16.204 0 0 1 130.647 76 Q 130.626 76.75 130.541 77.971 A 101.139 101.139 0 0 1 130.537 78.032 Z M 81.333 84.184 L 81.157 84.184 L 80.645 86.25 L 78.901 86.25 L 78.901 63.457 L 81.333 63.457 L 81.333 68.994 Q 81.333 70.854 81.216 72.334 L 81.333 72.334 Q 83.032 69.931 86.372 69.931 A 7.432 7.432 0 0 1 88.464 70.211 A 5.563 5.563 0 0 1 91.287 72.092 Q 93.037 74.253 93.037 78.208 A 14.257 14.257 0 0 1 92.848 80.607 Q 92.46 82.879 91.272 84.353 A 5.757 5.757 0 0 1 87.181 86.504 A 8.247 8.247 0 0 1 86.372 86.543 A 7.376 7.376 0 0 1 84.519 86.317 A 6.418 6.418 0 0 1 83.508 85.964 A 5.386 5.386 0 0 1 81.333 84.184 Z M 108.96 86.25 L 107.158 86.25 L 106.675 83.965 L 106.558 83.965 A 10.08 10.08 0 0 1 105.742 84.878 Q 104.951 85.655 104.163 86.008 A 5.608 5.608 0 0 1 103.004 86.374 Q 102.442 86.49 101.792 86.526 A 10.943 10.943 0 0 1 101.182 86.543 A 7.462 7.462 0 0 1 99.663 86.398 Q 98.735 86.205 98.022 85.755 A 4.187 4.187 0 0 1 97.439 85.312 A 3.997 3.997 0 0 1 96.233 83.204 A 6.118 6.118 0 0 1 96.084 81.811 A 4.208 4.208 0 0 1 98.477 77.84 Q 100.399 76.818 103.862 76.714 L 106.587 76.626 L 106.587 75.63 Q 106.587 74.475 106.283 73.689 A 2.714 2.714 0 0 0 105.774 72.839 Q 104.961 71.938 103.174 71.938 A 7.917 7.917 0 0 0 101.352 72.165 Q 100.516 72.363 99.606 72.734 A 16.285 16.285 0 0 0 98.633 73.169 L 97.886 71.308 Q 99.072 70.664 100.486 70.298 A 11.261 11.261 0 0 1 103.32 69.931 A 10.27 10.27 0 0 1 104.884 70.042 Q 105.688 70.167 106.33 70.43 A 4.139 4.139 0 0 1 107.576 71.206 Q 108.96 72.48 108.96 75.293 L 108.96 86.25 Z M 124.678 70.737 L 123.931 72.803 A 10.817 10.817 0 0 0 122.757 72.412 A 12.92 12.92 0 0 0 122.173 72.268 Q 121.358 72.086 120.705 72.06 A 5.39 5.39 0 0 0 120.488 72.055 Q 116.143 72.055 115.657 76.979 A 13.436 13.436 0 0 0 115.596 78.296 A 11.776 11.776 0 0 0 115.712 80.011 Q 115.969 81.749 116.79 82.837 A 3.862 3.862 0 0 0 119.292 84.332 A 5.883 5.883 0 0 0 120.327 84.419 A 10.179 10.179 0 0 0 123.135 84.01 A 12.568 12.568 0 0 0 124.443 83.555 L 124.443 85.708 Q 123.06 86.425 121.06 86.526 A 13.335 13.335 0 0 1 120.386 86.543 A 9.088 9.088 0 0 1 118.175 86.289 A 6.163 6.163 0 0 1 114.988 84.397 Q 113.337 82.543 113.112 79.362 A 14.703 14.703 0 0 1 113.076 78.325 A 13.417 13.417 0 0 1 113.284 75.885 Q 113.711 73.578 115.017 72.099 A 6.296 6.296 0 0 1 118.465 70.117 A 9.545 9.545 0 0 1 120.547 69.902 A 10.973 10.973 0 0 1 122.861 70.151 A 12.137 12.137 0 0 1 123.536 70.315 Q 124.225 70.506 124.678 70.737 Z M 86.021 71.968 Q 83.53 71.968 82.432 73.396 Q 81.466 74.651 81.349 77.415 A 18.735 18.735 0 0 0 81.333 78.208 A 16.078 16.078 0 0 0 81.413 79.87 Q 81.587 81.546 82.147 82.566 A 3.668 3.668 0 0 0 82.461 83.049 A 3.528 3.528 0 0 0 84.25 84.257 Q 84.849 84.444 85.578 84.491 A 7.819 7.819 0 0 0 86.079 84.507 A 4.847 4.847 0 0 0 87.456 84.322 A 3.497 3.497 0 0 0 89.419 82.873 Q 90.204 81.707 90.428 79.811 A 13.933 13.933 0 0 0 90.518 78.179 A 14.366 14.366 0 0 0 90.431 76.542 Q 90.209 74.611 89.419 73.506 A 3.546 3.546 0 0 0 87.161 72.077 A 5.624 5.624 0 0 0 86.021 71.968 Z M 106.528 79.805 L 106.528 78.354 L 104.097 78.457 A 17.854 17.854 0 0 0 102.67 78.56 Q 101.263 78.724 100.381 79.113 A 3.735 3.735 0 0 0 99.915 79.358 A 2.595 2.595 0 0 0 98.678 81.24 A 3.841 3.841 0 0 0 98.633 81.841 A 3.475 3.475 0 0 0 98.719 82.638 Q 98.863 83.251 99.25 83.672 A 2.166 2.166 0 0 0 99.431 83.847 Q 100.121 84.442 101.285 84.523 A 5.469 5.469 0 0 0 101.665 84.536 Q 103.936 84.536 105.232 83.291 Q 106.521 82.053 106.528 79.829 A 7.705 7.705 0 0 0 106.528 79.805 Z" id="back_labelLayer" stroke="#777777" fill="#777777" style="stroke:#777777;fill:#777777" vector-effect="non-scaling-stroke"/><path d="M 226 0 L 226 33.414 L 223 33.414 L 223 61.138 L 226 61.138 L 226 88.862 L 223 88.862 L 223 116.586 L 226 116.586 L 226 144.31 L 226 150 L 249.138 150 L 249.138 147 L 276.862 147 L 276.862 150 L 300 150 L 300 116.586 L 303 116.586 L 303 88.862 L 300 88.862 L 300 61.138 L 303 61.138 L 303 33.414 L 300 33.414 L 300 5.69 L 300 0 L 276.862 0 L 276.862 3 L 249.138 3 L 249.138 0 L 226 0 Z" id="right_outsideCutPath" stroke="#FF0000" stroke-width="0.1" style="stroke:#FF0000;stroke-width:0.1" vector-effect="non-scaling-stroke"/><path d="M 272.949 79.156 L 271.652 79.156 L 271.652 73.617 A 3.666 3.666 0 0 0 271.61 73.042 Q 271.562 72.74 271.459 72.498 A 1.543 1.543 0 0 0 271.176 72.055 A 1.462 1.462 0 0 0 270.576 71.672 Q 270.341 71.589 270.051 71.558 A 3.438 3.438 0 0 0 269.684 71.539 A 3.925 3.925 0 0 0 268.95 71.603 Q 268.543 71.68 268.23 71.852 A 1.816 1.816 0 0 0 267.711 72.273 A 2.158 2.158 0 0 0 267.345 72.922 Q 267.124 73.517 267.094 74.4 A 8.37 8.37 0 0 0 267.09 74.68 L 267.09 79.156 L 265.793 79.156 L 265.793 67 L 267.09 67 L 267.09 70.68 A 11.666 11.666 0 0 1 267.082 71.128 Q 267.067 71.501 267.027 71.781 L 267.105 71.781 A 2.591 2.591 0 0 1 268.013 70.908 A 3.165 3.165 0 0 1 268.195 70.809 A 3.329 3.329 0 0 1 269.288 70.484 A 4.209 4.209 0 0 1 269.809 70.453 Q 271.379 70.453 272.164 71.199 Q 272.774 71.779 272.91 72.889 A 5.608 5.608 0 0 1 272.949 73.57 L 272.949 79.156 Z M 261.074 70.594 L 264.035 70.594 L 264.035 71.414 L 262.449 71.602 A 2.108 2.108 0 0 1 262.632 71.873 Q 262.712 72.013 262.784 72.181 A 3.998 3.998 0 0 1 262.84 72.316 A 2.495 2.495 0 0 1 262.988 72.912 A 3.204 3.204 0 0 1 263.012 73.312 A 2.973 2.973 0 0 1 262.875 74.234 A 2.405 2.405 0 0 1 262.152 75.32 Q 261.378 75.996 260.084 76.063 A 5.633 5.633 0 0 1 259.793 76.07 A 4.168 4.168 0 0 1 259.311 76.043 A 3.52 3.52 0 0 1 259.074 76.008 A 2.308 2.308 0 0 0 258.702 76.248 Q 258.51 76.404 258.399 76.581 A 0.976 0.976 0 0 0 258.246 77.109 Q 258.246 77.461 258.535 77.629 A 0.91 0.91 0 0 0 258.737 77.712 Q 258.948 77.774 259.27 77.79 A 4.933 4.933 0 0 0 259.527 77.797 L 261.043 77.797 A 5.309 5.309 0 0 1 261.849 77.854 Q 262.271 77.919 262.611 78.057 A 2.344 2.344 0 0 1 263.18 78.383 A 1.897 1.897 0 0 1 263.885 79.591 A 2.85 2.85 0 0 1 263.926 80.086 A 2.808 2.808 0 0 1 263.765 81.057 Q 263.498 81.788 262.785 82.254 A 3.889 3.889 0 0 1 261.782 82.709 Q 261.288 82.859 260.686 82.932 A 10.279 10.279 0 0 1 259.457 83 Q 257.777 83 256.867 82.375 Q 256.016 81.79 255.961 80.755 A 2.739 2.739 0 0 1 255.957 80.609 Q 255.957 79.828 256.457 79.258 A 2.265 2.265 0 0 1 257.235 78.691 A 3.21 3.21 0 0 1 257.863 78.484 A 1.346 1.346 0 0 1 257.341 78.062 A 1.598 1.598 0 0 1 257.312 78.023 A 1.202 1.202 0 0 1 257.092 77.374 A 1.489 1.489 0 0 1 257.09 77.297 A 1.483 1.483 0 0 1 257.165 76.819 A 1.314 1.314 0 0 1 257.34 76.477 A 1.856 1.856 0 0 1 257.585 76.2 Q 257.715 76.078 257.883 75.959 A 4.074 4.074 0 0 1 258.129 75.797 A 2.274 2.274 0 0 1 257.141 75.006 A 2.818 2.818 0 0 1 257.047 74.867 A 2.681 2.681 0 0 1 256.635 73.575 A 3.272 3.272 0 0 1 256.629 73.367 Q 256.629 71.961 257.473 71.199 A 2.754 2.754 0 0 1 258.53 70.616 Q 258.95 70.488 259.455 70.452 A 5.728 5.728 0 0 1 259.863 70.437 A 4.971 4.971 0 0 1 260.521 70.479 A 3.786 3.786 0 0 1 261.074 70.594 Z M 279.551 78.086 L 279.551 79.078 A 1.276 1.276 0 0 1 279.399 79.138 Q 279.212 79.2 278.93 79.246 A 5.621 5.621 0 0 1 278.563 79.294 Q 278.39 79.31 278.235 79.312 A 3.325 3.325 0 0 1 278.191 79.312 A 3.387 3.387 0 0 1 277.193 79.178 Q 276.096 78.84 275.809 77.648 A 4.076 4.076 0 0 1 275.707 76.695 L 275.707 71.602 L 274.48 71.602 L 274.48 70.977 L 275.707 70.437 L 276.254 68.609 L 277.004 68.609 L 277.004 70.594 L 279.488 70.594 L 279.488 71.602 L 277.004 71.602 L 277.004 76.641 A 2.611 2.611 0 0 0 277.042 77.099 Q 277.122 77.547 277.371 77.828 Q 277.738 78.242 278.379 78.242 A 4.259 4.259 0 0 0 279.003 78.198 A 3.925 3.925 0 0 0 279.043 78.191 Q 279.349 78.143 279.533 78.091 A 1.951 1.951 0 0 0 279.551 78.086 Z M 251.379 70.531 L 251.199 71.734 A 5.716 5.716 0 0 0 250.788 71.658 Q 250.583 71.629 250.401 71.62 A 3.042 3.042 0 0 0 250.262 71.617 A 2.247 2.247 0 0 0 248.602 72.334 A 3.074 3.074 0 0 0 248.484 72.461 A 2.962 2.962 0 0 0 247.77 74.124 A 3.936 3.936 0 0 0 247.746 74.562 L 247.746 79.156 L 246.449 79.156 L 246.449 70.594 L 247.52 70.594 L 247.668 72.18 L 247.73 72.18 A 4.38 4.38 0 0 1 248.22 71.48 A 3.345 3.345 0 0 1 248.879 70.891 A 2.585 2.585 0 0 1 250.355 70.437 A 5.954 5.954 0 0 1 250.888 70.46 A 4.345 4.345 0 0 1 251.379 70.531 Z M 254.277 70.594 L 254.277 79.156 L 252.98 79.156 L 252.98 70.594 L 254.277 70.594 Z M 260.629 78.961 L 259.074 78.961 Q 258.191 78.961 257.699 79.383 A 1.367 1.367 0 0 0 257.25 80.158 A 2.075 2.075 0 0 0 257.207 80.594 A 1.302 1.302 0 0 0 257.293 81.077 Q 257.416 81.388 257.717 81.598 A 1.522 1.522 0 0 0 257.793 81.648 Q 258.379 82.008 259.473 82.008 Q 261.105 82.008 261.891 81.519 A 1.892 1.892 0 0 0 262.33 81.152 A 1.418 1.418 0 0 0 262.676 80.195 A 1.755 1.755 0 0 0 262.644 79.847 Q 262.603 79.646 262.511 79.497 A 0.817 0.817 0 0 0 262.246 79.23 Q 261.919 79.025 261.152 78.976 A 8.252 8.252 0 0 0 260.629 78.961 Z M 257.91 73.336 A 2.531 2.531 0 0 0 257.962 73.867 Q 258.073 74.382 258.418 74.695 Q 258.875 75.111 259.656 75.152 A 3.339 3.339 0 0 0 259.832 75.156 A 2.825 2.825 0 0 0 260.572 75.068 Q 261.418 74.838 261.646 74.007 A 2.627 2.627 0 0 0 261.73 73.312 A 2.789 2.789 0 0 0 261.635 72.549 Q 261.303 71.383 259.809 71.383 A 2.721 2.721 0 0 0 259.254 71.436 Q 258.914 71.507 258.655 71.672 A 1.493 1.493 0 0 0 258.402 71.875 A 1.556 1.556 0 0 0 258.026 72.509 Q 257.91 72.867 257.91 73.336 Z M 253.09 67.621 A 0.607 0.607 0 0 0 252.956 67.811 Q 252.871 67.996 252.871 68.273 A 1.531 1.531 0 0 0 252.878 68.42 Q 252.909 68.749 253.09 68.926 A 0.728 0.728 0 0 0 253.353 69.093 A 0.824 0.824 0 0 0 253.637 69.141 A 0.757 0.757 0 0 0 254.176 68.926 Q 254.402 68.711 254.402 68.273 A 1.484 1.484 0 0 0 254.396 68.133 Q 254.364 67.8 254.176 67.625 A 0.764 0.764 0 0 0 253.637 67.414 A 0.99 0.99 0 0 0 253.571 67.416 A 0.75 0.75 0 0 0 253.09 67.621 Z" id="right_labelLayer" stroke="#777777" fill="#777777" style="stroke:#777777;fill:#777777" vector-effect="non-scaling-stroke"/><path d="M 309 143 L 309 166.138 L 306 166.138 L 306 193.862 L 309 193.862 L 309 217 L 346.69 217 L 346.69 220 L 374.414 220 L 374.414 217 L 402.138 217 L 402.138 220 L 429.862 220 L 429.862 217 L 457.586 217 L 457.586 220 L 485.31 220 L 485.31 217 L 513.034 217 L 523 217 L 523 193.862 L 526 193.862 L 526 166.138 L 523 166.138 L 523 143 L 485.31 143 L 485.31 140 L 457.586 140 L 457.586 143 L 429.862 143 L 429.862 140 L 402.138 140 L 402.138 143 L 374.414 143 L 374.414 140 L 346.69 140 L 346.69 143 L 318.966 143 L 309 143 Z" id="bottom_outsideCutPath" stroke="#FF0000" stroke-width="0.1" style="stroke:#FF0000;stroke-width:0.1" vector-effect="non-scaling-stroke"/><path d="M 442.32 186 L 441.023 186 L 441.023 180.429 Q 441.023 179.788 440.852 179.348 A 1.567 1.567 0 0 0 440.586 178.894 A 1.365 1.365 0 0 0 439.952 178.484 Q 439.725 178.411 439.45 178.391 A 3.01 3.01 0 0 0 439.227 178.383 A 3.337 3.337 0 0 0 438.547 178.447 Q 438.144 178.531 437.839 178.725 A 1.717 1.717 0 0 0 437.437 179.078 A 2.143 2.143 0 0 0 437.074 179.736 Q 436.861 180.333 436.859 181.205 A 7.141 7.141 0 0 0 436.859 181.219 L 436.859 186 L 435.562 186 L 435.562 180.429 Q 435.562 179.788 435.391 179.348 A 1.567 1.567 0 0 0 435.125 178.894 Q 434.746 178.451 433.999 178.392 A 3.037 3.037 0 0 0 433.758 178.383 A 3.221 3.221 0 0 0 433.092 178.447 Q 432.371 178.599 431.973 179.113 A 2.175 2.175 0 0 0 431.65 179.726 Q 431.441 180.317 431.411 181.204 A 9.03 9.03 0 0 0 431.406 181.508 L 431.406 186 L 430.109 186 L 430.109 177.437 L 431.164 177.437 L 431.375 178.609 L 431.437 178.609 A 2.549 2.549 0 0 1 432.473 177.633 A 3.079 3.079 0 0 1 433.689 177.291 A 3.719 3.719 0 0 1 433.969 177.281 A 4.246 4.246 0 0 1 434.924 177.381 Q 435.512 177.517 435.922 177.838 A 2.214 2.214 0 0 1 436.594 178.734 L 436.656 178.734 A 2.708 2.708 0 0 1 437.676 177.722 A 3.254 3.254 0 0 1 437.766 177.672 A 3.282 3.282 0 0 1 438.97 177.305 A 4.093 4.093 0 0 1 439.422 177.281 A 4.508 4.508 0 0 1 440.24 177.35 Q 440.694 177.434 441.049 177.62 A 2.137 2.137 0 0 1 441.598 178.027 Q 442.124 178.57 442.267 179.588 A 5.948 5.948 0 0 1 442.32 180.414 L 442.32 186 Z M 390.977 184.898 L 390.883 184.898 L 390.609 186 L 389.68 186 L 389.68 173.844 L 390.977 173.844 L 390.977 176.797 A 27.039 27.039 0 0 1 390.962 177.71 Q 390.946 178.171 390.914 178.578 L 390.977 178.578 A 2.949 2.949 0 0 1 393.129 177.328 A 4.429 4.429 0 0 1 393.664 177.297 A 3.964 3.964 0 0 1 394.78 177.445 A 2.967 2.967 0 0 1 396.285 178.449 Q 397.219 179.601 397.219 181.711 Q 397.219 183.199 396.75 184.219 A 3.645 3.645 0 0 1 396.277 184.988 A 3.07 3.07 0 0 1 394.095 186.135 A 4.399 4.399 0 0 1 393.664 186.156 A 3.934 3.934 0 0 1 392.676 186.036 A 3.423 3.423 0 0 1 392.137 185.847 A 2.872 2.872 0 0 1 390.977 184.898 Z M 413.086 184.929 L 413.086 185.922 A 1.276 1.276 0 0 1 412.935 185.982 Q 412.747 186.044 412.465 186.09 A 5.621 5.621 0 0 1 412.098 186.137 Q 411.926 186.154 411.77 186.156 A 3.325 3.325 0 0 1 411.727 186.156 A 3.387 3.387 0 0 1 410.728 186.022 Q 409.631 185.683 409.344 184.491 A 4.076 4.076 0 0 1 409.242 183.539 L 409.242 178.445 L 408.016 178.445 L 408.016 177.82 L 409.242 177.281 L 409.789 175.453 L 410.539 175.453 L 410.539 177.437 L 413.023 177.437 L 413.023 178.445 L 410.539 178.445 L 410.539 183.484 A 2.611 2.611 0 0 0 410.577 183.943 Q 410.657 184.39 410.906 184.672 Q 411.273 185.086 411.914 185.086 A 4.259 4.259 0 0 0 412.538 185.041 A 3.925 3.925 0 0 0 412.578 185.035 Q 412.884 184.986 413.069 184.934 A 1.951 1.951 0 0 0 413.086 184.929 Z M 418.734 184.929 L 418.734 185.922 A 1.276 1.276 0 0 1 418.583 185.982 Q 418.395 186.044 418.113 186.09 A 5.621 5.621 0 0 1 417.747 186.137 Q 417.574 186.154 417.419 186.156 A 3.325 3.325 0 0 1 417.375 186.156 A 3.387 3.387 0 0 1 416.377 186.022 Q 415.28 185.683 414.992 184.491 A 4.076 4.076 0 0 1 414.891 183.539 L 414.891 178.445 L 413.664 178.445 L 413.664 177.82 L 414.891 177.281 L 415.437 175.453 L 416.187 175.453 L 416.187 177.437 L 418.672 177.437 L 418.672 178.445 L 416.187 178.445 L 416.187 183.484 A 2.611 2.611 0 0 0 416.225 183.943 Q 416.305 184.39 416.555 184.672 Q 416.922 185.086 417.562 185.086 A 4.259 4.259 0 0 0 418.186 185.041 A 3.925 3.925 0 0 0 418.227 185.035 Q 418.532 184.986 418.717 184.934 A 1.951 1.951 0 0 0 418.734 184.929 Z M 406.756 183.014 A 6.699 6.699 0 0 0 406.875 181.711 Q 406.875 180.878 406.699 180.187 A 4.038 4.038 0 0 0 405.816 178.476 A 3.395 3.395 0 0 0 404.24 177.46 A 4.358 4.358 0 0 0 402.961 177.281 A 5.037 5.037 0 0 0 402.056 177.359 A 3.43 3.43 0 0 0 400.055 178.449 Q 399.008 179.617 399.008 181.711 A 6.488 6.488 0 0 0 399.089 182.762 A 4.798 4.798 0 0 0 399.492 184.07 A 4.263 4.263 0 0 0 399.587 184.255 A 3.511 3.511 0 0 0 400.867 185.617 Q 401.758 186.156 402.906 186.156 A 5.036 5.036 0 0 0 403.786 186.083 A 3.457 3.457 0 0 0 405.82 184.98 A 3.618 3.618 0 0 0 406.251 184.388 Q 406.602 183.787 406.756 183.014 Z M 427.717 183.014 A 6.699 6.699 0 0 0 427.836 181.711 Q 427.836 180.878 427.66 180.187 A 4.038 4.038 0 0 0 426.777 178.476 A 3.395 3.395 0 0 0 425.201 177.46 A 4.358 4.358 0 0 0 423.922 177.281 A 5.037 5.037 0 0 0 423.017 177.359 A 3.43 3.43 0 0 0 421.016 178.449 Q 419.969 179.617 419.969 181.711 A 6.488 6.488 0 0 0 420.05 182.762 A 4.798 4.798 0 0 0 420.453 184.07 A 4.263 4.263 0 0 0 420.547 184.255 A 3.511 3.511 0 0 0 421.828 185.617 Q 422.719 186.156 423.867 186.156 A 5.036 5.036 0 0 0 424.747 186.083 A 3.457 3.457 0 0 0 426.781 184.98 A 3.618 3.618 0 0 0 427.212 184.388 Q 427.563 183.787 427.717 183.014 Z M 400.352 181.711 A 6.567 6.567 0 0 0 400.414 182.649 Q 400.554 183.617 401.008 184.211 Q 401.664 185.07 402.937 185.07 A 3.012 3.012 0 0 0 403.732 184.971 A 2.096 2.096 0 0 0 404.871 184.215 Q 405.531 183.359 405.531 181.711 A 6.471 6.471 0 0 0 405.47 180.789 Q 405.402 180.319 405.26 179.939 A 2.67 2.67 0 0 0 404.871 179.23 A 2.133 2.133 0 0 0 403.545 178.439 A 3.271 3.271 0 0 0 402.922 178.383 A 3.086 3.086 0 0 0 402.153 178.473 A 2.066 2.066 0 0 0 401 179.219 A 2.681 2.681 0 0 0 400.583 180.024 Q 400.46 180.394 400.402 180.847 A 6.853 6.853 0 0 0 400.352 181.711 Z M 421.312 181.711 A 6.567 6.567 0 0 0 421.375 182.649 Q 421.515 183.617 421.969 184.211 Q 422.625 185.07 423.898 185.07 A 3.012 3.012 0 0 0 424.693 184.971 A 2.096 2.096 0 0 0 425.832 184.215 Q 426.492 183.359 426.492 181.711 A 6.471 6.471 0 0 0 426.431 180.789 Q 426.363 180.319 426.22 179.939 A 2.67 2.67 0 0 0 425.832 179.23 A 2.133 2.133 0 0 0 424.506 178.439 A 3.271 3.271 0 0 0 423.883 178.383 A 3.086 3.086 0 0 0 423.114 178.473 A 2.066 2.066 0 0 0 421.961 179.219 A 2.681 2.681 0 0 0 421.544 180.024 Q 421.421 180.394 421.363 180.847 A 6.853 6.853 0 0 0 421.312 181.711 Z M 392.063 178.705 A 1.725 1.725 0 0 0 391.562 179.144 A 2.22 2.22 0 0 0 391.241 179.756 Q 391.024 180.364 390.985 181.288 A 9.992 9.992 0 0 0 390.977 181.711 Q 390.977 183.244 391.411 184.035 A 1.956 1.956 0 0 0 391.578 184.293 Q 392.18 185.07 393.508 185.07 Q 394.703 185.07 395.289 184.199 A 2.977 2.977 0 0 0 395.657 183.402 Q 395.875 182.69 395.875 181.695 A 7.662 7.662 0 0 0 395.829 180.822 Q 395.719 179.867 395.348 179.291 A 2.151 2.151 0 0 0 395.289 179.203 A 1.891 1.891 0 0 0 394.085 178.441 A 2.999 2.999 0 0 0 393.477 178.383 Q 392.613 178.383 392.063 178.705 Z" id="bottom_labelLayer" stroke="#777777" fill="#777777" style="stroke:#777777;fill:#777777" vector-effect="non-scaling-stroke"/></g></svg>